<?xml version="1.0" encoding="UTF-8" standalone="no"?>
<svg
   xmlns:dc="http://purl.org/dc/elements/1.1/"
   xmlns:cc="http://creativecommons.org/ns#"
   xmlns:rdf="http://www.w3.org/1999/02/22-rdf-syntax-ns#"
   xmlns:svg="http://www.w3.org/2000/svg"
   xmlns="http://www.w3.org/2000/svg"
   xmlns:sodipodi="http://sodipodi.sourceforge.net/DTD/sodipodi-0.dtd"
   xmlns:inkscape="http://www.inkscape.org/namespaces/inkscape"
   width="16"
   height="16"
   viewBox="0 0 16 16"
   preserveAspectRatio="xMinYMid meet"
   overflow="visible"
   id="svg2"
   version="1.1"
   inkscape:version="0.91 r"
   sodipodi:docname="help_no.svg"
   inkscape:export-filename="/var/www/html/moodle/mod/assign/feedback/editpdfplus/pix/help_no.png"
   inkscape:export-xdpi="90"
   inkscape:export-ydpi="90">
  <metadata
     id="metadata10">
    <rdf:RDF>
      <cc:Work
         rdf:about="">
        <dc:format>image/svg+xml</dc:format>
        <dc:type
           rdf:resource="http://purl.org/dc/dcmitype/StillImage" />
        <dc:title></dc:title>
      </cc:Work>
    </rdf:RDF>
  </metadata>
  <defs
     id="defs8" />
  <sodipodi:namedview
     pagecolor="#ffffff"
     bordercolor="#666666"
     borderopacity="1"
     objecttolerance="10"
     gridtolerance="10"
     guidetolerance="10"
     inkscape:pageopacity="0"
     inkscape:pageshadow="2"
     inkscape:window-width="808"
     inkscape:window-height="480"
     id="namedview6"
     showgrid="false"
     inkscape:zoom="14.75"
     inkscape:cx="8.0677966"
     inkscape:cy="8"
     inkscape:window-x="1084"
     inkscape:window-y="166"
     inkscape:window-maximized="0"
     inkscape:current-layer="svg2" />
  <path
     d="M8 0C3.6 0 0 3.6 0 8s3.6 8 8 8 8-3.6 8-8-3.6-8-8-8zm0 14c-3.3 0-6-2.7-6-6s2.7-6 6-6 6 2.7 6 6-2.7 6-6 6zM5.8 6.6c-.6 0-1-.4-1-1C4.7 4.5 5.9 3 8.1 3c1.4 0 3.4 1 3.4 2.6 0 .8-.5 1.5-1.5 1.9-1.5.5-.7 1.6-2 1.6-.6 0-1-.3-1-.9 0-1.2 1.2-1.8 1.2-3 0-.3-.1-.7-.5-.7s-.4.4-.4.7c-.1.9-.6 1.4-1.5 1.4zm2.1 6.5c-.8 0-1.5-.7-1.5-1.5S7 10 7.9 10c.8 0 1.5.7 1.5 1.5s-.7 1.6-1.5 1.6z"
     fill="#999"
     id="path4" />
  <path
     style="fill:none;fill-rule:evenodd;stroke:#000000;stroke-width:1px;stroke-linecap:round;stroke-linejoin:miter;stroke-opacity:0.6859504"
     d="M 0.20338983,15.864407 C 15.932203,0.20338983 15.932203,0.20338983 15.932203,0.20338983"
     id="path3338"
     inkscape:connector-curvature="0" />
</svg>
